<?xml version="1.0" encoding="UTF-8"?>
<!DOCTYPE svg PUBLIC "-//W3C//DTD SVG 1.1//EN" "http://www.w3.org/Graphics/SVG/1.1/DTD/svg11.dtd">
<svg xmlns="http://www.w3.org/2000/svg" version="1.1" width="253px" height="100px" style="shape-rendering:geometricPrecision; text-rendering:geometricPrecision; image-rendering:optimizeQuality; fill-rule:evenodd; clip-rule:evenodd" xmlns:xlink="http://www.w3.org/1999/xlink">
<g><path style="opacity:1" fill="#fefdfd" d="M -0.5,-0.5 C 83.8333,-0.5 168.167,-0.5 252.5,-0.5C 252.5,32.8333 252.5,66.1667 252.5,99.5C 168.167,99.5 83.8333,99.5 -0.5,99.5C -0.5,66.1667 -0.5,32.8333 -0.5,-0.5 Z"/></g>
<g><path style="opacity:1" fill="#cd3807" d="M 230.5,38.5 C 230.5,40.5 230.5,42.5 230.5,44.5C 217.167,44.5 203.833,44.5 190.5,44.5C 190.5,47.5 190.5,50.5 190.5,53.5C 197.403,51.7511 204.403,51.2511 211.5,52C 217.447,53.6132 220.947,57.4465 222,63.5C 222.5,74.1615 222.667,84.8281 222.5,95.5C 218.583,95.0438 215.417,93.3772 213,90.5C 203.086,96.4681 192.919,96.9681 182.5,92C 173.978,83.5727 174.978,76.2394 185.5,70C 194.471,64.7646 203.638,64.2646 213,68.5C 213.572,60.5864 209.738,57.2531 201.5,58.5C 194.82,59.2818 188.486,61.2818 182.5,64.5C 181.105,62.081 181.605,60.081 184,58.5C 184.499,53.8452 184.666,49.1785 184.5,44.5C 148.167,44.5 111.833,44.5 75.5,44.5C 75.3334,57.5043 75.5001,70.5043 76,83.5C 78.5727,93.0764 84.4061,95.9097 93.5,92C 99.004,89.16 102.171,84.66 103,78.5C 103.5,70.1733 103.666,61.84 103.5,53.5C 107.167,53.5 110.833,53.5 114.5,53.5C 114.5,68.1667 114.5,82.8333 114.5,97.5C 109.197,97.1891 105.197,94.8557 102.5,90.5C 86.6921,99.836 74.5254,96.5026 66,80.5C 65.5001,68.5046 65.3335,56.5046 65.5,44.5C 52.5,44.5 39.5,44.5 26.5,44.5C 26.1744,48.8839 26.5078,53.2172 27.5,57.5C 33.4064,53.9766 39.7397,52.8099 46.5,54C 35.8459,55.8196 29.1793,61.9863 26.5,72.5C 25.8333,79.8333 25.1667,87.1667 24.5,94.5C 21.9499,93.6422 19.4499,92.6422 17,91.5C 16.5001,75.8369 16.3334,60.1702 16.5,44.5C 14.5,44.5 12.5,44.5 10.5,44.5C 10.5,42.5 10.5,40.5 10.5,38.5C 12.5,38.5 14.5,38.5 16.5,38.5C 17.2111,24.4624 12.8778,12.2957 3.5,2C 7.16667,1.33333 10.8333,1.33333 14.5,2C 22.7269,12.7298 26.3936,24.8964 25.5,38.5C 93.8333,38.5 162.167,38.5 230.5,38.5 Z"/></g>
<g><path style="opacity:1" fill="#cc3503" d="M 232.5,91.5 C 232.831,69.327 232.497,47.327 231.5,25.5C 229.597,15.7617 224.931,7.595 217.5,1C 225.526,-1.21876 231.359,1.28124 235,8.5C 237.789,13.5343 239.789,18.8677 241,24.5C 241.667,48.5 241.667,72.5 241,96.5C 238.021,94.933 235.188,93.2663 232.5,91.5 Z"/></g>
<g><path style="opacity:1" fill="#f7ded6" d="M 231.5,25.5 C 232.497,47.327 232.831,69.327 232.5,91.5C 231.833,75.8333 231.167,60.1667 230.5,44.5C 230.5,42.5 230.5,40.5 230.5,38.5C 231.485,34.3656 231.818,30.0323 231.5,25.5 Z"/></g>
<g><path style="opacity:1" fill="#cb3300" d="M 243.5,38.5 C 245.167,38.5 246.833,38.5 248.5,38.5C 248.5,40.5 248.5,42.5 248.5,44.5C 246.833,44.5 245.167,44.5 243.5,44.5C 243.5,42.5 243.5,40.5 243.5,38.5 Z"/></g>
<g><path style="opacity:1" fill="#cd3908" d="M 132.5,81.5 C 131.833,86.5 131.167,91.5 130.5,96.5C 128.527,95.5133 126.527,94.5133 124.5,93.5C 123.501,80.1833 123.167,66.85 123.5,53.5C 126.5,53.5 129.5,53.5 132.5,53.5C 132.338,55.5273 132.505,57.5273 133,59.5C 148.964,46.694 161.63,49.3606 171,67.5C 173.077,79.2012 169.91,89.2012 161.5,97.5C 158.301,95.1365 154.968,92.9698 151.5,91C 160.988,84.1943 165.155,75.0277 164,63.5C 160.909,56.872 155.743,54.372 148.5,56C 137.992,61.1697 132.659,69.6697 132.5,81.5 Z"/></g>
<g><path style="opacity:1" fill="#cd3909" d="M 48.5,55.5 C 48.56,54.9569 48.8933,54.6236 49.5,54.5C 60.1969,59.5144 61.1969,66.0144 52.5,74C 49.9109,75.1965 47.2442,76.1965 44.5,77C 48.3559,81.3549 52.0226,85.8549 55.5,90.5C 53.5398,92.1563 51.5398,93.823 49.5,95.5C 43.1667,88.1667 36.8333,80.8333 30.5,73.5C 31.7515,71.9991 32.7515,70.3325 33.5,68.5C 37.9072,67.8754 42.2406,67.042 46.5,66C 50.3234,62.7961 50.99,59.2961 48.5,55.5 Z"/></g>
<g><path style="opacity:1" fill="#e5997f" d="M 26.5,72.5 C 26.8308,80.1955 26.4975,87.8622 25.5,95.5C 24.8933,95.3764 24.56,95.0431 24.5,94.5C 25.1667,87.1667 25.8333,79.8333 26.5,72.5 Z"/></g>
<g><path style="opacity:1" fill="#fefaf9" d="M 194.5,72.5 C 200.319,72.2763 205.985,73.1096 211.5,75C 213.211,76.1332 213.711,77.6332 213,79.5C 204.037,88.0433 193.537,90.8767 181.5,88C 180.251,85.7904 180.418,83.6237 182,81.5C 185.616,77.6202 189.783,74.6202 194.5,72.5 Z"/></g>
<g><path style="opacity:1" fill="#d96a44" d="M 132.5,81.5 C 132.828,86.8746 132.495,92.2079 131.5,97.5C 130.893,97.3764 130.56,97.0431 130.5,96.5C 131.167,91.5 131.833,86.5 132.5,81.5 Z"/></g>
</svg>
